<?xml version="1.0" encoding="utf-8"?>
<!-- Generator: Adobe Illustrator 21.1.0, SVG Export Plug-In . SVG Version: 6.00 Build 0)  -->
<svg version="1.1" id="Слой_1" xmlns="http://www.w3.org/2000/svg" xmlns:xlink="http://www.w3.org/1999/xlink" x="0px" y="0px"
	 viewBox="0 0 871.9 668.5" style="enable-background:new 0 0 871.9 668.5;" xml:space="preserve">
<style type="text/css">
	.st0{fill:none;stroke:#FFFFFF;stroke-width:3;stroke-miterlimit:10;}
</style>
<title>Ресурс 1</title>
<g id="Слой_2">
	<g id="Слой_2-2">
		<line class="st0" x1="595.7" y1="472.5" x2="383.2" y2="610.2"/>
		<line class="st0" x1="391.7" y1="552.8" x2="598" y2="411.7"/>
		<line class="st0" x1="391.7" y1="488" x2="596.3" y2="352.7"/>
		<line class="st0" x1="391.7" y1="430.7" x2="596.3" y2="293.7"/>
		<line class="st0" x1="388" y1="372.7" x2="596.3" y2="233.3"/>
		<line class="st0" x1="388" y1="312" x2="596.3" y2="174.7"/>
		<line class="st0" x1="388" y1="254.3" x2="596.3" y2="114.3"/>
		<line class="st0" x1="382.3" y1="184" x2="596.3" y2="41.7"/>
		
			<image style="overflow:visible;enable-background:new    ;" width="377" height="291" xlink:href="8.png"  transform="matrix(1 0 0 1 28 377.5)">
		</image>
		<g transform="translate(0 305)">
			
				<image style="overflow:visible;enable-background:new    ;" width="437" height="351" id="image" xlink:href="CF343BE6.png"  transform="matrix(1 0 0 1 0 305)">
			</image>
		</g>
		
			<image style="overflow:visible;enable-background:new    ;" width="377" height="291" xlink:href="7.png"  transform="matrix(1 0 0 1 25.33 330.14)">
		</image>
		<g transform="translate(0 255)">
			
				<image style="overflow:visible;enable-background:new    ;" width="437" height="351" id="image_2_" xlink:href="CF343BE2.png"  transform="matrix(1 0 0 1 0 255)">
			</image>
		</g>
		
			<image style="overflow:visible;enable-background:new    ;" width="377" height="291" xlink:href="6.png"  transform="matrix(1 0 0 1 25.33 279.55)">
		</image>
		<g transform="translate(0 202)">
			
				<image style="overflow:visible;enable-background:new    ;" width="437" height="351" id="image_3_" xlink:href="CF343BEE.png"  transform="matrix(1 0 0 1 0 202)">
			</image>
		</g>
		
			<image style="overflow:visible;enable-background:new    ;" width="377" height="291" xlink:href="5.png"  transform="matrix(1 0 0 1 25.33 227.33)">
		</image>
		<g transform="translate(0 152)">
			
				<image style="overflow:visible;enable-background:new    ;" width="437" height="351" id="image-2" xlink:href="CF343BE3.png"  transform="matrix(1 0 0 1 0 152)">
			</image>
		</g>
		
			<image style="overflow:visible;enable-background:new    ;" width="377" height="291" xlink:href="4.png"  transform="matrix(1 0 0 1 25.33 177.17)">
		</image>
		<g transform="translate(0 101)">
			
				<image style="overflow:visible;enable-background:new    ;" width="437" height="351" id="image-2_2_" xlink:href="F28CA7F5.png"  transform="matrix(1 0 0 1 0 101)">
			</image>
		</g>
		
			<image style="overflow:visible;enable-background:new    ;" width="377" height="291" xlink:href="3.png"  transform="matrix(1 0 0 1 25.33 126)">
		</image>
		<g transform="translate(0 50)">
			
				<image style="overflow:visible;enable-background:new    ;" width="437" height="351" id="image-2_3_" xlink:href="F28CA80D.png"  transform="matrix(1 0 0 1 0 50)">
			</image>
		</g>
		
			<image style="overflow:visible;enable-background:new    ;" width="377" height="291" xlink:href="2.png"  transform="matrix(1 0 0 1 25.33 75.17)">
		</image>
		<g>
			
				<image style="overflow:visible;enable-background:new    ;" width="437" height="351" id="image-2_4_" xlink:href="F28CA80C.png" >
			</image>
		</g>
		
			<image style="overflow:visible;enable-background:new    ;" width="377" height="291" xlink:href="1.png"  transform="matrix(1 0 0 1 25.33 25)">
		</image>
		<path d="M624.8,30.5l-1.2,0.2v8h1.6l-0.1,4.5h-2.2v-2.7h-9.7v-1.4l1.2-0.2v-8.2l-1.2-0.2v-1.4h4.7v1.4l-1.2,0.2v8h4.6v-8l-1.2-0.2
			v-1.4h4.7L624.8,30.5z"/>
		<path d="M630.9,32.1c0.9-0.1,1.8,0.2,2.6,0.6c0.6,0.4,1,1.1,0.9,1.8c0,0.4-0.1,0.8-0.4,1c-0.3,0.3-0.7,0.6-1.1,0.7
			c0.5,0.1,1.1,0.3,1.5,0.7c0.3,0.3,0.5,0.8,0.5,1.2c0,0.7-0.3,1.4-0.9,1.8c-0.8,0.5-1.7,0.7-2.6,0.6h-5.3v-1.4l1.2-0.2v-5.2
			l-1.2-0.2v-1.4H630.9L630.9,32.1z M629.6,35.5h1.4c0.3,0,0.6-0.1,0.9-0.2c0.2-0.1,0.3-0.4,0.3-0.6c0-0.3-0.1-0.5-0.3-0.7
			c-0.3-0.2-0.7-0.2-1-0.2h-1.3L629.6,35.5z M629.6,37v1.8h1.8c0.3,0,0.6-0.1,0.9-0.2c0.2-0.2,0.3-0.4,0.3-0.7
			c0-0.3-0.1-0.5-0.3-0.7c-0.3-0.2-0.6-0.3-0.9-0.2L629.6,37z"/>
		<path d="M640,40.7c-1.1,0-2.2-0.4-2.9-1.2c-0.7-0.8-1.1-1.9-1.1-3v-0.3c-0.1-1.1,0.3-2.2,1-3.1c1.5-1.5,3.9-1.6,5.4-0.2
			c0.7,0.8,1,1.8,1,2.8V37h-5l0,0c0,0.5,0.2,1,0.6,1.4c0.3,0.4,0.8,0.6,1.3,0.5c0.4,0,0.8,0,1.3-0.2c0.4-0.1,0.7-0.3,1.1-0.5
			l0.6,1.4c-0.4,0.3-0.9,0.5-1.4,0.7C641.3,40.6,640.6,40.7,640,40.7z M639.8,33.7c-0.4,0-0.8,0.2-1,0.5c-0.3,0.4-0.4,0.8-0.5,1.3
			l0,0h2.8v-0.2c0-0.4-0.1-0.8-0.3-1.2C640.6,33.8,640.2,33.6,639.8,33.7L639.8,33.7z"/>
		<path d="M653.1,32.1V35h-1.8l-0.1-1.1h-1.5V39l1.2,0.2v1.4h-4.7v-1.4l1.2-0.2v-5.1h-1.4l-0.1,1.2h-1.8v-2.9H653.1z"/>
		<path d="M654.3,33.4v-1.4h4.5v1.4l-1,0.2v1.8h2.8v-1.8l-1-0.2v-1.4h4.5v1.4l-1.2,0.2v5.2l1.2,0.2v1.4h-4.5v-1.4l1-0.2v-1.7h-2.8
			v1.7l1,0.2v1.4h-4.5v-1.4l1.2-0.2v-5.2L654.3,33.4z"/>
		<path d="M665.1,36.2c0-1.1,0.3-2.2,1.1-3.1c1.6-1.6,4.2-1.6,5.9,0c0.7,0.9,1.1,2,1.1,3.1v0.2c0,1.1-0.3,2.2-1.1,3.1
			c-1.6,1.6-4.2,1.6-5.9,0c-0.7-0.9-1.1-2-1.1-3.1V36.2z M667.4,36.4c0,0.6,0.1,1.3,0.4,1.9c0.5,0.7,1.4,0.9,2.2,0.5
			c0.2-0.1,0.3-0.3,0.5-0.5c0.3-0.6,0.4-1.2,0.4-1.8v-0.2c0-0.6-0.1-1.3-0.4-1.8c-0.3-0.5-0.8-0.7-1.3-0.7c-0.5,0-1,0.2-1.3,0.7
			c-0.3,0.6-0.4,1.2-0.4,1.8L667.4,36.4z"/>
		<path d="M678.2,40.7c-1.1,0-2.2-0.4-2.9-1.2c-0.7-0.8-1.1-1.9-1.1-3v-0.3c-0.1-1.1,0.3-2.2,1-3.1c1.5-1.5,3.9-1.6,5.4-0.2
			c0.7,0.8,1,1.8,1,2.8V37h-5l0,0c0,0.5,0.2,1,0.5,1.4c0.3,0.4,0.8,0.6,1.3,0.5c0.4,0,0.8,0,1.3-0.2c0.4-0.1,0.7-0.3,1.1-0.5
			l0.6,1.4c-0.4,0.3-0.9,0.5-1.4,0.7C679.4,40.6,678.8,40.7,678.2,40.7z M678,33.7c-0.4,0-0.8,0.2-1,0.5c-0.3,0.4-0.4,0.8-0.5,1.3
			l0,0h2.8v-0.2c0-0.4-0.1-0.8-0.3-1.1C678.7,33.8,678.3,33.6,678,33.7L678,33.7z"/>
		<path d="M686.7,39.2l1.2-0.2v-5.2l-1.2-0.2v-1.4h9.8v1.4l-1.2,0.2v5.2l1.2,0.2v1.4H692v-1.4l1-0.2v-5.1h-2.8v5.1l1,0.2v1.4h-4.5
			L686.7,39.2z"/>
		<path d="M697.6,36.2c0-1.1,0.3-2.2,1.1-3.1c1.6-1.6,4.2-1.6,5.9,0c0.7,0.9,1.1,2,1.1,3.1v0.2c0,1.1-0.3,2.2-1.1,3.1
			c-1.6,1.6-4.2,1.6-5.9,0c-0.7-0.9-1.1-2-1.1-3.1V36.2z M699.9,36.4c0,0.6,0.1,1.3,0.4,1.9c0.5,0.7,1.4,0.9,2.2,0.5
			c0.2-0.1,0.3-0.3,0.5-0.5c0.3-0.6,0.4-1.2,0.4-1.8v-0.2c0-0.6-0.1-1.3-0.4-1.8c-0.3-0.5-0.8-0.7-1.3-0.7c-0.5,0-1,0.2-1.3,0.7
			c-0.3,0.6-0.4,1.2-0.4,1.8L699.9,36.4z"/>
		<path d="M711.1,39.2l1.2-0.2v-5.1h-2v1.8c0.1,1.3-0.2,2.5-0.8,3.7c-0.6,0.8-1.6,1.3-2.6,1.2h-0.4v-1.8h0.3c0.4,0,0.8-0.2,1-0.6
			c0.2-0.8,0.3-1.6,0.2-2.4v-2l-1.2-0.2v-1.4h9v1.4l-1.2,0.2v5.2l1.2,0.2v1.4h-4.7L711.1,39.2z"/>
		<path d="M721.7,32.1v1.4l-1.1,0.2v3.5l0,0l2.8-5.1h3.5v1.4l-1.2,0.2v5.2l1.2,0.2v1.4h-4.6v-1.4l1.1-0.2v-3.5l0,0l-2.8,5.2H717
			v-1.4l1.2-0.2v-5.2l-1.2-0.2v-1.4H721.7L721.7,32.1z"/>
		<path d="M731.5,38.9c0.5,0,0.9-0.2,1.2-0.5c0.3-0.4,0.4-0.9,0.4-1.4l0,0h-2.2v-1.4h2.1l0,0c0-0.5-0.2-1-0.5-1.3
			c-0.3-0.4-0.8-0.6-1.2-0.5c-0.2,0-0.4,0-0.7,0.1c-0.2,0-0.3,0.1-0.5,0.2l-0.2,1.1h-1.8v-2.1c0.4-0.4,0.8-0.7,1.3-0.8
			c0.6-0.2,1.2-0.3,1.8-0.3c1.1-0.1,2.2,0.4,3,1.2c0.7,0.9,1.1,2,1,3.1v0.2c0.1,1.1-0.3,2.2-1,3.1c-1.5,1.5-3.8,1.6-5.4,0.3
			c-0.7-0.5-1-1.3-1-2.1l0,0h2.1c0,0.4,0.1,0.7,0.4,1C730.7,38.9,731.1,39,731.5,38.9z"/>
		<path d="M742.9,28.3v3.8c0.2-0.1,0.3-0.1,0.5-0.2c0.2,0,0.4-0.1,0.6-0.1c0.9,0,1.8,0.4,2.3,1.2c0.6,1,0.9,2.1,0.8,3.2v0.2
			c0,1.1-0.2,2.1-0.8,3c-0.5,0.7-1.4,1.2-2.3,1.2c-0.2,0-0.4,0-0.6,0c-0.2,0-0.3-0.1-0.5-0.2v1.7l1.2,0.2v1.4h-4.7v-1.4l1.2-0.2
			v-1.7c-0.2,0.1-0.3,0.1-0.5,0.1c-0.2,0-0.4,0.1-0.5,0c-0.9,0-1.8-0.4-2.3-1.1c-0.6-0.9-0.9-1.9-0.8-3v-0.2
			c-0.1-1.1,0.2-2.3,0.8-3.2c0.6-0.9,1.7-1.4,2.8-1.2c0.2,0,0.3,0.1,0.5,0.2v-2.2l-1.2-0.2v-1.4H742.9L742.9,28.3z M738.7,36.5
			c0,0.6,0.1,1.2,0.3,1.8c0.2,0.4,0.6,0.7,1.1,0.6h0.2h0.2v-5.2h-0.2h-0.2c-0.5,0-0.9,0.3-1.1,0.7C738.8,35.1,738.7,35.8,738.7,36.5
			L738.7,36.5z M744.8,36.4c0-0.7-0.1-1.3-0.3-2c-0.2-0.5-0.6-0.8-1.1-0.8h-0.3h-0.2v5.2h0.2h0.3c0.5,0,0.9-0.2,1.1-0.7
			C744.7,37.6,744.8,37,744.8,36.4L744.8,36.4z"/>
		<path d="M752.8,32.1v1.4l-1.1,0.2v3.5l0,0l2.8-5.1h3.5v1.4l-1.2,0.2v5.2l1.2,0.2v1.4h-4.6v-1.4l1.1-0.2v-3.5l0,0l-2.8,5.2h-3.5
			v-1.4l1.2-0.2v-5.2l-1.2-0.2v-1.4H752.8L752.8,32.1z"/>
		<path d="M758.9,33.4v-1.4h3.3l0.1,1c0.2-0.3,0.5-0.6,0.9-0.8c0.4-0.2,0.8-0.3,1.2-0.3c1,0,1.9,0.4,2.4,1.2c0.6,1,0.9,2.1,0.9,3.2
			v0.2c0,1.1-0.3,2.1-0.9,3c-0.6,0.8-1.5,1.2-2.4,1.1c-0.4,0-0.8-0.1-1.2-0.3c-0.3-0.2-0.6-0.4-0.9-0.7v2.5l1.1,0.2v1.4H759v-1.4
			l1.1-0.2v-8.5L758.9,33.4z M765.5,36.4c0-0.7-0.1-1.3-0.4-1.9c-0.2-0.5-0.7-0.8-1.2-0.7c-0.3,0-0.6,0.1-0.9,0.2
			c-0.2,0.1-0.4,0.4-0.6,0.6v3.7c0.1,0.2,0.3,0.4,0.6,0.5c0.3,0.1,0.6,0.2,0.9,0.2c0.5,0,1-0.2,1.2-0.7c0.3-0.5,0.4-1.1,0.4-1.8
			L765.5,36.4z"/>
		<path d="M769,33.4v-1.4h4.5v1.4l-1,0.2v1.8h2.8v-1.8l-1-0.2v-1.4h4.5v1.4l-1.2,0.2v5.2l1.2,0.2v1.4h-4.5v-1.4l1-0.2v-1.7h-2.8v1.7
			l1,0.2v1.4H769v-1.4l1.2-0.2v-5.2L769,33.4z"/>
		<path d="M779.8,36.2c0-1.1,0.3-2.2,1.1-3.1c1.6-1.6,4.2-1.6,5.9,0c0.7,0.9,1.1,2,1.1,3.1v0.2c0,1.1-0.3,2.2-1.1,3.1
			c-1.6,1.6-4.2,1.6-5.9,0c-0.7-0.9-1.1-2-1.1-3.1V36.2z M782.1,36.4c0,0.6,0.1,1.3,0.4,1.9c0.5,0.7,1.4,0.9,2.2,0.5
			c0.2-0.1,0.3-0.3,0.5-0.5c0.3-0.6,0.4-1.2,0.4-1.8v-0.2c0-0.6-0.1-1.3-0.4-1.8c-0.3-0.5-0.8-0.7-1.3-0.7c-0.5,0-1,0.2-1.3,0.7
			c-0.3,0.6-0.4,1.2-0.4,1.8L782.1,36.4z"/>
		<path d="M792.9,40.7c-1.1,0-2.2-0.4-2.9-1.2c-0.7-0.8-1.1-1.9-1.1-3v-0.3c-0.1-1.1,0.3-2.2,1-3.1c1.5-1.5,3.9-1.6,5.4-0.2
			c0.7,0.8,1,1.8,1,2.8V37h-5l0,0c0,0.5,0.2,1,0.6,1.4c0.3,0.4,0.8,0.6,1.3,0.5c0.4,0,0.8,0,1.3-0.2c0.4-0.1,0.7-0.3,1.1-0.5
			l0.6,1.4c-0.4,0.3-0.9,0.5-1.4,0.7C794.1,40.6,793.5,40.7,792.9,40.7z M792.7,33.7c-0.4,0-0.8,0.2-1,0.5c-0.3,0.4-0.4,0.8-0.5,1.3
			l0,0h2.8v-0.2c0-0.4-0.1-0.8-0.3-1.2C793.4,33.8,793,33.6,792.7,33.7L792.7,33.7z"/>
		<path d="M613.3,63.2l1.2-0.2v-5.2l-1.2-0.2v-1.4h9.8v1.4l-1.2,0.2v5.2l1.2,0.2v1.4h-4.5v-1.4l1-0.2v-5.1h-2.8v5.1l1,0.2v1.4h-4.5
			L613.3,63.2z"/>
		<path d="M624.2,60.2c0-1.1,0.3-2.2,1.1-3.1c1.6-1.6,4.2-1.6,5.9,0c0.7,0.9,1.1,2,1.1,3.1v0.2c0,1.1-0.3,2.2-1.1,3.1
			c-1.6,1.6-4.2,1.6-5.9,0c-0.7-0.9-1.1-2-1.1-3.1V60.2z M626.5,60.4c0,0.6,0.1,1.3,0.4,1.9c0.5,0.7,1.4,0.9,2.2,0.5
			c0.2-0.1,0.3-0.3,0.5-0.5c0.3-0.6,0.4-1.2,0.4-1.8v-0.2c0-0.6-0.1-1.3-0.4-1.8c-0.3-0.5-0.8-0.7-1.3-0.7c-0.5,0-1,0.2-1.3,0.7
			c-0.3,0.6-0.4,1.2-0.4,1.8L626.5,60.4z"/>
		<path d="M633.4,57.4v-1.4h4.5v1.4l-1,0.2v1.6h0.8l1.3-1.9c0.3-0.4,0.6-0.8,1-1.1c0.4-0.3,0.8-0.4,1.3-0.4c0.2,0,0.5,0,0.7,0.1
			c0.2,0.1,0.4,0.2,0.6,0.3l-0.4,1.6l-0.3-0.1h-0.2c-0.2,0-0.4,0.1-0.5,0.2c-0.2,0.1-0.3,0.3-0.5,0.5l-1.1,1.6l2,2.9l1.2,0.2v1.4
			h-3.1l-1.8-3.2H637v1.6l1,0.2v1.4h-4.5v-1.4l1.2-0.2v-5.2L633.4,57.4z"/>
		<path d="M643.4,57.4v-1.4h3.3l0.1,1c0.2-0.3,0.5-0.6,0.9-0.8c0.4-0.2,0.8-0.3,1.2-0.3c1,0,1.9,0.4,2.4,1.2c0.6,1,0.9,2.1,0.9,3.2
			v0.2c0,1.1-0.3,2.1-0.9,3c-0.6,0.7-1.5,1.2-2.4,1.1c-0.4,0-0.8-0.1-1.2-0.3c-0.3-0.2-0.6-0.4-0.9-0.7v2.4l1.1,0.2v1.4h-4.5v-1.4
			l1.1-0.2v-8.5L643.4,57.4z M650,60.4c0-0.7-0.1-1.3-0.4-1.9c-0.2-0.5-0.7-0.8-1.2-0.7c-0.3,0-0.6,0.1-0.9,0.2
			c-0.2,0.1-0.4,0.4-0.6,0.6v3.7c0.1,0.2,0.3,0.4,0.6,0.5c0.3,0.1,0.6,0.2,0.9,0.2c0.5,0,1-0.2,1.2-0.7c0.3-0.5,0.4-1.1,0.4-1.8
			L650,60.4z"/>
		<path d="M657,56.1v2.7h1.6c1-0.1,1.9,0.2,2.7,0.8c0.6,0.5,1,1.2,1,2c0,0.8-0.4,1.6-1,2.1c-0.8,0.6-1.7,0.9-2.7,0.8h-5.1v-1.4
			l1.2-0.2v-5.2l-1.2-0.2v-1.4H657z M658.2,56.1v1.4l-1.2,0.2v-1.6H658.2z M657,60.4v2.3h1.6c0.4,0,0.7-0.1,1-0.3
			c0.2-0.2,0.4-0.5,0.3-0.8c0-0.3-0.1-0.6-0.3-0.9c-0.3-0.2-0.7-0.4-1-0.3L657,60.4z M662.3,57.4v-1.4h3.5v6.8l1.1,0.2v1.4h-4.5
			v-1.4l1.1-0.2v-5.2L662.3,57.4z"/>
		<path d="M676.3,56.1V59h-1.8l-0.1-1.1H673V63l1.2,0.2v1.4h-4.7v-1.4l1.2-0.2v-5.1h-1.4l-0.1,1.2h-1.8v-2.9H676.3z"/>
		<path d="M682,56.1v1.4l-1.1,0.2v3.5l0,0l2.8-5.1h3.5v1.4l-1.2,0.2v5.2l1.2,0.2v1.4h-4.6v-1.4l1.1-0.2v-3.5l0,0l-2.8,5.1h-3.5v-1.4
			l1.2-0.2v-5.2l-1.2-0.2v-1.4H682z"/>
		<path d="M692.4,64.7c-1.1,0-2.2-0.4-2.9-1.2c-0.7-0.8-1.1-1.9-1.1-3v-0.3c-0.1-1.1,0.3-2.2,1-3.1c1.5-1.5,3.9-1.6,5.4-0.2
			c0.7,0.8,1,1.8,1,2.8V61h-5l0,0c0,0.5,0.2,1,0.6,1.4c0.3,0.4,0.8,0.6,1.3,0.5c0.4,0,0.8,0,1.3-0.2c0.4-0.1,0.8-0.3,1.1-0.5
			l0.6,1.4c-0.4,0.3-0.9,0.5-1.4,0.7C693.6,64.6,693,64.7,692.4,64.7z M692.2,57.7c-0.4,0-0.8,0.2-1,0.5c-0.3,0.4-0.4,0.8-0.5,1.3
			l0,0h2.8v-0.2c0-0.4-0.1-0.8-0.3-1.2C692.9,57.8,692.5,57.6,692.2,57.7L692.2,57.7z"/>
		<path d="M613.2,117.5l1.2-0.2v-8.2l-1.2-0.2v-1.4h8.6v2.9H620l-0.1-1.1h-3.3v8l1.2,0.2v1.4h-4.7L613.2,117.5z"/>
		<path d="M622.5,111.8v-1.4h3.3l0.1,1c0.2-0.3,0.5-0.6,0.9-0.8c0.4-0.2,0.8-0.3,1.2-0.3c1,0,1.9,0.4,2.4,1.2c0.6,1,0.9,2.1,0.9,3.2
			v0.2c0,1.1-0.3,2.1-0.9,3c-0.6,0.7-1.5,1.2-2.4,1.1c-0.4,0-0.8-0.1-1.2-0.3c-0.4-0.2-0.7-0.4-0.9-0.8v2.4l1.1,0.2v1.4h-4.5v-1.4
			l1.1-0.2V112L622.5,111.8z M629.1,114.7c0-0.7-0.1-1.3-0.4-1.9c-0.2-0.5-0.7-0.8-1.2-0.7c-0.3,0-0.6,0.1-0.9,0.2
			c-0.2,0.1-0.4,0.4-0.6,0.6v3.7c0.1,0.2,0.3,0.4,0.6,0.6c0.3,0.1,0.6,0.2,0.9,0.2c0.5,0,1-0.2,1.2-0.7c0.3-0.5,0.4-1.1,0.4-1.8
			L629.1,114.7z"/>
		<path d="M641.1,111.8l-0.8,0.1l-3.1,8.2c-0.2,0.6-0.6,1.1-1,1.5c-0.5,0.4-1.2,0.7-1.8,0.6c-0.2,0-0.4,0-0.5,0l-0.6-0.1l0.3-1.7
			h0.2h0.2c0.3,0,0.6-0.1,0.9-0.3c0.2-0.2,0.4-0.4,0.5-0.7l0.3-0.6l-2.7-7l-0.8-0.1v-1.4h4.1v1.4l-1,0.2l1.2,3.4l0.1,0.6l0,0l1.3-4
			l-1-0.2v-1.4h4.1L641.1,111.8z"/>
		<path d="M642,111.8v-1.4h4.5v1.4l-1,0.2v1.8h2.8V112l-1-0.2v-1.4h4.5v1.4l-1.2,0.2v5.2l1.2,0.2v1.4h-4.5v-1.4l1-0.2v-1.7h-2.8v1.7
			l1,0.2v1.4H642v-1.4l1.2-0.2V112L642,111.8z"/>
		<path d="M661.6,110.4v2.9h-1.8l-0.1-1.1h-1.5v5.1l1.2,0.2v1.4h-4.7v-1.4l1.2-0.2v-5.1h-1.4l-0.1,1.1h-1.8v-2.9H661.6z"/>
		<path d="M613.1,174.1l1.2-0.2v-8.2l-1.2-0.2v-1.4h4.7v1.4l-1.2,0.2v3h1l2.1-3.1c0.3-0.5,0.7-0.9,1.2-1.3c0.4-0.3,0.9-0.4,1.4-0.4
			c0.3,0,0.5,0,0.7,0.1c0.2,0.1,0.4,0.2,0.6,0.3l-0.4,1.7L623,166h-0.3c-0.2,0-0.5,0.1-0.7,0.2c-0.3,0.2-0.5,0.5-0.7,0.8l-1.8,2.4
			l3.2,4.5l1.2,0.2v1.4h-4.5v-1.4l0.7-0.1l-2.1-3.2h-1.3v3.1l1.2,0.2v1.4h-4.7V174.1z"/>
		<path d="M624.4,171.2c0-1.1,0.3-2.2,1.1-3.1c1.6-1.6,4.2-1.6,5.9,0c0.7,0.9,1.1,2,1.1,3.1v0.2c0,1.1-0.3,2.2-1.1,3.1
			c-1.6,1.6-4.2,1.6-5.9,0c-0.7-0.9-1.1-2-1.1-3.1V171.2z M626.7,171.4c0,0.6,0.1,1.3,0.4,1.9c0.5,0.7,1.4,0.9,2.2,0.5
			c0.2-0.1,0.3-0.3,0.5-0.5c0.3-0.6,0.4-1.2,0.4-1.9v-0.2c0-0.6-0.1-1.3-0.4-1.8c-0.3-0.5-0.8-0.7-1.3-0.7c-0.5,0-1,0.2-1.3,0.7
			c-0.3,0.6-0.4,1.2-0.4,1.8L626.7,171.4z"/>
		<path d="M633.5,168.4v-1.4h4.5v1.4l-1,0.2v1.8h2.8v-1.8l-1-0.2v-1.4h4.5v1.4l-1.2,0.2v5.2l1.2,0.2v1.4h-4.5v-1.4l1-0.2v-1.7H637
			v1.7l1,0.2v1.4h-4.5v-1.4l1.2-0.2v-5.2L633.5,168.4z"/>
		<path d="M649.4,167.1c0.9-0.1,1.8,0.2,2.6,0.6c0.6,0.4,1,1.1,0.9,1.8c0,0.4-0.1,0.8-0.4,1.1c-0.3,0.3-0.7,0.6-1.1,0.7
			c0.5,0.1,1.1,0.3,1.5,0.7c0.3,0.3,0.5,0.8,0.5,1.2c0,0.7-0.3,1.4-0.9,1.8c-0.8,0.5-1.7,0.7-2.6,0.6h-5.3v-1.4l1.2-0.2v-5.2
			l-1.2-0.2v-1.4L649.4,167.1L649.4,167.1z M648.1,170.5h1.4c0.3,0,0.6-0.1,0.9-0.2c0.2-0.1,0.3-0.4,0.3-0.6c0-0.3-0.1-0.5-0.3-0.7
			c-0.3-0.2-0.7-0.2-1-0.2h-1.3L648.1,170.5z M648.1,172v1.8h1.8c0.3,0,0.6-0.1,0.9-0.2c0.2-0.2,0.3-0.4,0.3-0.7
			c0-0.3-0.1-0.5-0.3-0.7c-0.3-0.2-0.6-0.3-0.9-0.2L648.1,172z"/>
		<path d="M658.5,175.7c-1.1,0-2.2-0.4-2.9-1.2c-0.7-0.8-1.1-1.9-1.1-3v-0.3c-0.1-1.1,0.3-2.2,1-3.1c1.5-1.5,3.9-1.6,5.4-0.2
			c0.7,0.8,1,1.8,1,2.8v1.3h-5l0,0c0,0.5,0.2,1,0.6,1.4c0.3,0.4,0.8,0.6,1.3,0.5c0.4,0,0.8,0,1.3-0.1c0.4-0.1,0.7-0.3,1.1-0.5
			l0.6,1.4c-0.4,0.3-0.9,0.5-1.4,0.7C659.7,175.6,659.1,175.7,658.5,175.7z M658.3,168.7c-0.4,0-0.8,0.2-1,0.5
			c-0.3,0.4-0.4,0.8-0.5,1.3l0,0h2.8v-0.2c0-0.4-0.1-0.8-0.3-1.2C659,168.8,658.6,168.6,658.3,168.7L658.3,168.7z"/>
		<path d="M662.8,168.4v-1.4h3.3l0.1,1c0.2-0.3,0.5-0.6,0.9-0.8c0.4-0.2,0.8-0.3,1.2-0.3c1,0,1.9,0.4,2.4,1.2c0.6,1,0.9,2.1,0.9,3.2
			v0.2c0,1.1-0.3,2.1-0.9,3c-0.6,0.8-1.5,1.2-2.4,1.1c-0.4,0-0.8-0.1-1.2-0.3c-0.3-0.2-0.6-0.4-0.9-0.7v2.4l1.1,0.2v1.4h-4.5v-1.4
			l1.1-0.2v-8.5L662.8,168.4z M669.3,171.4c0-0.7-0.1-1.3-0.4-1.9c-0.2-0.5-0.7-0.8-1.2-0.7c-0.3,0-0.6,0.1-0.9,0.2
			c-0.2,0.1-0.4,0.4-0.6,0.6v3.7c0.1,0.2,0.3,0.4,0.6,0.6c0.3,0.1,0.6,0.2,0.9,0.2c0.5,0,1-0.2,1.2-0.6c0.3-0.5,0.4-1.1,0.4-1.8
			L669.3,171.4z"/>
		<path d="M676.6,173.9c0.4,0,0.7-0.1,1-0.4c0.3-0.3,0.4-0.6,0.4-0.9h2l0,0c0,0.8-0.3,1.6-1,2.1c-1.6,1.3-3.9,1.1-5.4-0.3
			c-0.7-0.9-1.1-2-1-3.1v-0.2c0-1.1,0.3-2.2,1-3.1c0.8-0.8,1.9-1.3,3-1.2c0.6,0,1.2,0.1,1.8,0.3c0.5,0.2,1,0.5,1.3,0.9v2.3H678
			l-0.3-1.3c-0.1-0.1-0.3-0.2-0.4-0.3c-0.2-0.1-0.4-0.1-0.6-0.1c-0.6-0.1-1.1,0.2-1.4,0.7c-0.3,0.6-0.4,1.2-0.4,1.8v0.2
			c0,0.6,0.1,1.3,0.4,1.8C675.6,173.7,676.1,174,676.6,173.9z"/>
		<path d="M685.8,167.1v1.4l-1.1,0.2v3.5l0,0l2.8-5.1h3.5v1.4l-1.2,0.2v5.2l1.2,0.2v1.4h-4.6v-1.4l1.1-0.2v-3.5l0,0l-2.8,5.1h-3.5
			v-1.4l1.2-0.2v-5.2l-1.2-0.2v-1.4L685.8,167.1L685.8,167.1z"/>
		<path d="M692.1,171.2c0-1.1,0.3-2.2,1.1-3.1c1.6-1.6,4.2-1.6,5.9,0c0.7,0.9,1.1,2,1.1,3.1v0.2c0,1.1-0.3,2.2-1.1,3.1
			c-1.6,1.6-4.2,1.6-5.9,0c-0.7-0.9-1.1-2-1.1-3.1V171.2z M694.4,171.4c0,0.6,0.1,1.3,0.4,1.9c0.5,0.7,1.4,0.9,2.2,0.5
			c0.2-0.1,0.3-0.3,0.5-0.5c0.3-0.6,0.4-1.2,0.4-1.9v-0.2c0-0.6-0.1-1.3-0.4-1.8c-0.3-0.5-0.8-0.7-1.3-0.7c-0.5,0-1,0.2-1.3,0.7
			c-0.3,0.6-0.4,1.2-0.4,1.8L694.4,171.4z"/>
		<path d="M701.3,168.4v-1.4h4.5v1.4l-1,0.2v1.8h2.8v-1.8l-1-0.2v-1.4h4.5v1.4l-1.2,0.2v5.2l1.2,0.2v1.4h-4.5v-1.4l1-0.2v-1.7h-2.8
			v1.7l1,0.2v1.4h-4.5v-1.4l1.2-0.2v-5.2L701.3,168.4z"/>
		<path d="M712.3,168.4v-1.4h4.5v1.4l-1,0.2v1.8h2.8v-1.8l-1-0.2v-1.4h4.5v1.4l-1.2,0.2v5.2l1.2,0.2v1.4h-4.5v-1.4l1-0.2v-1.7h-2.8
			v1.7l1,0.2v1.4h-4.5v-1.4l1.2-0.2v-5.2L712.3,168.4z"/>
		<path d="M723.2,171.2c0-1.1,0.3-2.2,1.1-3.1c1.6-1.6,4.2-1.6,5.9,0c0.7,0.9,1.1,2,1.1,3.1v0.2c0,1.1-0.3,2.2-1.1,3.1
			c-1.6,1.6-4.2,1.6-5.9,0c-0.7-0.9-1.1-2-1.1-3.1V171.2z M725.5,171.4c0,0.6,0.1,1.3,0.4,1.9c0.5,0.7,1.4,0.9,2.2,0.5
			c0.2-0.1,0.3-0.3,0.5-0.5c0.3-0.6,0.4-1.2,0.4-1.9v-0.2c0-0.6-0.1-1.3-0.4-1.8c-0.3-0.5-0.8-0.7-1.3-0.7c-0.5,0-1,0.2-1.3,0.7
			c-0.3,0.6-0.4,1.2-0.4,1.8L725.5,171.4z"/>
		<path d="M736.2,175.7c-1.1,0-2.2-0.4-2.9-1.2c-0.7-0.8-1.1-1.9-1.1-3v-0.3c-0.1-1.1,0.3-2.2,1-3.1c1.5-1.5,3.9-1.6,5.4-0.2
			c0.7,0.8,1,1.8,1,2.8v1.3h-5l0,0c0,0.5,0.2,1,0.6,1.4c0.3,0.4,0.8,0.6,1.3,0.5c0.4,0,0.8,0,1.3-0.1c0.4-0.1,0.7-0.3,1.1-0.5
			l0.6,1.4c-0.4,0.3-0.9,0.5-1.4,0.7C737.5,175.6,736.9,175.7,736.2,175.7z M736,168.7c-0.4,0-0.8,0.2-1,0.5
			c-0.3,0.4-0.4,0.8-0.5,1.3l0,0h2.8v-0.2c0-0.4-0.1-0.8-0.3-1.2C736.8,168.8,736.4,168.6,736,168.7L736,168.7z"/>
		<path d="M744.8,174.1l1.2-0.2v-5.2l-1.2-0.2v-1.4h9.8v1.4l-1.2,0.2v5.2l1.2,0.2v1.4h-4.5v-1.4l1-0.2v-5.1h-2.8v5.1l1,0.2v1.4h-4.5
			L744.8,174.1z"/>
		<path d="M755.7,171.2c0-1.1,0.3-2.2,1.1-3.1c1.6-1.6,4.2-1.6,5.9,0c0.7,0.9,1.1,2,1.1,3.1v0.2c0,1.1-0.3,2.2-1.1,3.1
			c-1.6,1.6-4.2,1.6-5.9,0c-0.7-0.9-1.1-2-1.1-3.1V171.2z M758,171.4c0,0.6,0.1,1.3,0.4,1.9c0.5,0.7,1.4,0.9,2.2,0.5
			c0.2-0.1,0.3-0.3,0.5-0.5c0.3-0.6,0.4-1.2,0.4-1.9v-0.2c0-0.6-0.1-1.3-0.4-1.8c-0.3-0.5-0.8-0.7-1.3-0.7c-0.5,0-1,0.2-1.3,0.7
			c-0.3,0.6-0.4,1.2-0.4,1.8L758,171.4z"/>
		<path d="M764.9,168.4v-1.4h4.5v1.4l-1,0.2v1.6h0.8l1.3-1.9c0.3-0.4,0.6-0.8,1-1.1c0.4-0.3,0.8-0.4,1.3-0.4c0.2,0,0.5,0,0.7,0.1
			c0.2,0.1,0.4,0.2,0.6,0.3l-0.4,1.6l-0.3-0.1h-0.2c-0.2,0-0.4,0.1-0.5,0.2c-0.2,0.1-0.3,0.3-0.5,0.4l-1.1,1.6l2,2.9l1.2,0.2v1.4
			h-3.1l-1.8-3.2h-0.9v1.6l1,0.2v1.4h-4.5v-1.4l1.2-0.2v-5.2L764.9,168.4z"/>
		<path d="M774.9,168.4v-1.4h3.3l0.1,1c0.2-0.3,0.5-0.6,0.9-0.8c0.4-0.2,0.8-0.3,1.2-0.3c1,0,1.9,0.4,2.4,1.2c0.6,1,0.9,2.1,0.9,3.2
			v0.2c0,1.1-0.3,2.1-0.9,3c-0.6,0.8-1.5,1.2-2.4,1.1c-0.4,0-0.8-0.1-1.2-0.3c-0.3-0.2-0.6-0.4-0.9-0.7v2.4l1.1,0.2v1.4H775v-1.4
			l1.1-0.2v-8.5L774.9,168.4z M781.4,171.4c0-0.7-0.1-1.3-0.4-1.9c-0.2-0.5-0.7-0.8-1.2-0.7c-0.3,0-0.6,0.1-0.9,0.2
			c-0.2,0.1-0.4,0.4-0.6,0.6v3.7c0.1,0.2,0.3,0.4,0.6,0.6c0.3,0.1,0.6,0.2,0.9,0.2c0.5,0,1-0.2,1.2-0.6c0.3-0.5,0.4-1.1,0.4-1.8
			L781.4,171.4z"/>
		<path d="M788.5,167.1v2.7h1.5c1-0.1,1.9,0.2,2.7,0.8c0.6,0.5,1,1.2,1,2.1c0,0.8-0.4,1.6-1,2.1c-0.8,0.6-1.7,0.9-2.7,0.8h-5v-1.4
			l1.2-0.2v-5.2l-1.2-0.2v-1.4L788.5,167.1L788.5,167.1z M789.7,167.1v1.4l-1.2,0.2v-1.6H789.7z M788.5,171.5v2.3h1.5
			c0.4,0,0.7-0.1,1-0.3c0.2-0.2,0.4-0.5,0.3-0.8c0-0.3-0.1-0.6-0.3-0.9c-0.3-0.2-0.7-0.4-1-0.3L788.5,171.5z M793.7,168.5v-1.4h3.5
			v6.9l1.1,0.2v1.4h-4.5v-1.4l1.1-0.2v-5.2L793.7,168.5z"/>
		<path d="M807.8,167.1v2.9H806l-0.1-1.1h-1.5v5.1l1.2,0.2v1.4H801v-1.4l1.2-0.2v-5.1h-1.4l-0.1,1.1H799v-2.9L807.8,167.1z"/>
		<path d="M813.5,167.1v1.4l-1.1,0.2v3.5l0,0l2.8-5.1h3.5v1.4l-1.2,0.2v5.2l1.2,0.2v1.4H814v-1.4l1.1-0.2v-3.5l0,0l-2.8,5.1h-3.5
			v-1.4l1.2-0.2v-5.2l-1.2-0.2v-1.4L813.5,167.1L813.5,167.1z"/>
		<path d="M823.8,175.7c-1.1,0-2.2-0.4-2.9-1.2c-0.7-0.8-1.1-1.9-1.1-3v-0.3c-0.1-1.1,0.3-2.2,1-3.1c1.5-1.5,3.9-1.6,5.4-0.2
			c0.7,0.8,1,1.8,1,2.8v1.3h-5l0,0c0,0.5,0.2,1,0.6,1.4c0.3,0.4,0.8,0.6,1.3,0.5c0.4,0,0.8,0,1.3-0.1c0.4-0.1,0.7-0.3,1.1-0.5
			l0.6,1.4c-0.4,0.3-0.9,0.5-1.4,0.7C825.1,175.6,824.5,175.7,823.8,175.7z M823.6,168.7c-0.4,0-0.8,0.2-1,0.5
			c-0.3,0.4-0.4,0.8-0.5,1.3l0,0h2.8v-0.2c0-0.4-0.1-0.8-0.3-1.2C824.4,168.8,824,168.6,823.6,168.7L823.6,168.7z"/>
		<path d="M624.8,226.9l-1.2,0.2v8h1.6l-0.1,4.5h-2.2v-2.7h-9.7v-1.4l1.2-0.2v-8.2l-1.2-0.2v-1.4h4.7v1.4l-1.2,0.2v8h4.6v-8
			l-1.2-0.2v-1.4h4.7L624.8,226.9z"/>
		<path d="M630.7,228.4v1.4l-1.1,0.2v3.5l0,0l2.8-5.1h3.5v1.4l-1.2,0.2v5.2l1.2,0.2v1.4h-4.5v-1.4l1.1-0.2v-3.5l0,0l-2.8,5.1h-3.5
			v-1.4l1.2-0.2V230l-1.2-0.2v-1.4H630.7L630.7,228.4z"/>
		<path d="M637.2,229.8v-1.4h4.5v1.4l-1,0.2v1.8h2.8V230l-1-0.2v-1.4h4.5v1.4l-1.2,0.2v5.2l1.2,0.2v1.4h-4.5v-1.4l1-0.2v-1.7h-2.8
			v1.7l1,0.2v1.4h-4.5v-1.4l1.2-0.2V230L637.2,229.8z"/>
		<path d="M648.3,229.8v-1.4h4.5v1.4l-1,0.2v1.6h0.8l1.3-1.9c0.3-0.4,0.6-0.8,1-1.1c0.4-0.3,0.8-0.4,1.3-0.4c0.2,0,0.5,0,0.7,0.1
			c0.2,0.1,0.4,0.2,0.6,0.3l-0.4,1.6l-0.3-0.1h-0.2c-0.2,0-0.4,0.1-0.5,0.2c-0.2,0.1-0.3,0.3-0.5,0.4l-1.1,1.6l2,2.9l1.2,0.2v1.4
			h-3.1l-1.8-3.2h-0.9v1.6l1,0.2v1.4h-4.5v-1.4l1.2-0.2V230L648.3,229.8z"/>
		<path d="M624.1,286.4L624.1,286.4l-3,8.4h-1.5l-3-8.4l0,0l0.2,5v1.8l1.2,0.2v1.4h-4.9v-1.4l1.2-0.2v-8.2l-1.2-0.2v-1.4h4.2
			l2.9,8.4l0,0l2.9-8.4h4.2v1.4l-1.2,0.2v8.2l1.2,0.2v1.4h-4.7v-1.4l1.2-0.2v-1.8L624.1,286.4z"/>
		<path d="M632.3,295c-1.1,0-2.2-0.4-2.9-1.2c-0.7-0.8-1.1-1.9-1.1-3v-0.3c-0.1-1.1,0.3-2.2,1-3.1c1.5-1.5,3.9-1.6,5.4-0.2
			c0.7,0.8,1,1.8,1,2.8v1.2h-5l0,0c0,0.5,0.2,1,0.6,1.4c0.3,0.4,0.8,0.6,1.3,0.5c0.4,0,0.8,0,1.3-0.1c0.4-0.1,0.7-0.3,1.1-0.5
			l0.6,1.4c-0.4,0.3-0.9,0.5-1.4,0.7C633.6,294.9,632.9,295,632.3,295z M632.1,288c-0.4,0-0.8,0.2-1,0.5c-0.3,0.4-0.4,0.8-0.5,1.3
			l0,0h2.8v-0.2c0-0.4-0.1-0.8-0.3-1.2C632.8,288.1,632.5,288,632.1,288L632.1,288z"/>
		<path d="M645.4,286.4v2.9h-1.8l-0.1-1.1h-1.5v5.1l1.2,0.2v1.4h-4.7v-1.4l1.2-0.2v-5.1h-1.4l-0.1,1.1h-1.8v-2.9H645.4z"/>
		<path d="M651.6,294.9c-0.1-0.1-0.1-0.3-0.2-0.4c0-0.1-0.1-0.3-0.1-0.5c-0.3,0.3-0.6,0.6-1,0.8c-0.4,0.2-0.9,0.3-1.4,0.3
			c-0.7,0-1.4-0.2-2-0.7c-0.5-0.5-0.8-1.1-0.7-1.8c0-0.7,0.4-1.4,1-1.8c0.8-0.5,1.8-0.7,2.8-0.6h1.2v-0.8c0-0.4-0.1-0.7-0.3-1
			c-0.3-0.2-0.6-0.4-1-0.3c-0.2,0-0.5,0-0.7,0.1c-0.2,0-0.3,0.1-0.5,0.2l-0.2,0.9h-1.7v-1.9c0.4-0.3,0.9-0.5,1.4-0.7
			c0.6-0.2,1.2-0.3,1.8-0.3c0.9,0,1.8,0.2,2.5,0.8c0.7,0.5,1,1.3,1,2.2v3.5c0,0.1,0,0.3,0,0.4c0,0.1,0,0.2,0,0.3l0.7,0.1v1.4
			L651.6,294.9z M649.6,293.3c0.3,0,0.6-0.1,0.9-0.2c0.3-0.1,0.5-0.3,0.7-0.6v-1.3h-1.2c-0.4,0-0.8,0.1-1.1,0.3
			c-0.2,0.2-0.4,0.5-0.4,0.8c0,0.3,0.1,0.5,0.3,0.7C649.1,293.3,649.4,293.3,649.6,293.3L649.6,293.3z"/>
		<path d="M659.7,293.5l1.2-0.2v-5.1h-2v1.8c0.1,1.3-0.2,2.5-0.8,3.7c-0.6,0.8-1.6,1.3-2.6,1.2h-0.4v-1.8h0.3c0.4,0,0.8-0.2,1-0.6
			c0.2-0.8,0.3-1.6,0.2-2.4v-2l-1.2-0.2v-1.4h9v1.4l-1.2,0.2v5.2l1.2,0.2v1.4h-4.7L659.7,293.5z"/>
		<path d="M670.1,293.5l1.2-0.2v-5.1h-2v1.8c0.1,1.3-0.2,2.5-0.8,3.7c-0.6,0.8-1.6,1.3-2.6,1.2h-0.4v-1.8h0.3c0.4,0,0.8-0.2,1-0.6
			c0.2-0.8,0.2-1.6,0.1-2.4v-2l-1.2-0.2v-1.4h9v1.4l-1.2,0.2v5.2l1.2,0.2v1.4h-4.7L670.1,293.5z"/>
		<path d="M624.8,345.7l-1.2,0.2v8h1.6l-0.1,4.5h-2.2v-2.7h-9.7v-1.4l1.2-0.2v-8.2l-1.2-0.2v-1.4h4.7v1.4l-1.2,0.2v8h4.6v-8
			l-1.2-0.2v-1.4h4.7L624.8,345.7z"/>
		<path d="M630.7,347.2v1.4l-1.1,0.2v3.5l0,0l2.8-5.1h3.5v1.4l-1.2,0.2v5.2l1.2,0.2v1.4h-4.5v-1.4l1.1-0.2v-3.5l0,0l-2.8,5.1h-3.5
			v-1.4l1.2-0.2v-5.2l-1.2-0.2v-1.4L630.7,347.2L630.7,347.2z"/>
		<path d="M637.2,348.6v-1.4h4.5v1.4l-1,0.2v1.8h2.8v-1.8l-1-0.2v-1.4h4.5v1.4l-1.2,0.2v5.2l1.2,0.2v1.4h-4.5v-1.4l1-0.2v-1.7h-2.8
			v1.7l1,0.2v1.4h-4.5v-1.4l1.2-0.2v-5.2L637.2,348.6z"/>
		<path d="M648.3,348.6v-1.4h4.5v1.4l-1,0.2v1.6h0.8l1.3-1.9c0.3-0.4,0.6-0.8,1-1.1c0.4-0.3,0.8-0.4,1.3-0.4c0.2,0,0.5,0,0.7,0.1
			c0.2,0.1,0.4,0.2,0.6,0.3l-0.4,1.6l-0.3-0.1h-0.2c-0.2,0-0.4,0.1-0.5,0.2c-0.2,0.1-0.3,0.3-0.5,0.5l-1.1,1.6l2,2.9l1.2,0.2v1.4
			h-3.1l-1.8-3.2h-0.9v1.6l1,0.2v1.4h-4.5v-1.4l1.2-0.2v-5.2L648.3,348.6z"/>
		<path d="M617.4,401.9c0.5,0,1-0.1,1.3-0.4c0.3-0.3,0.5-0.7,0.4-1.2c0-0.4-0.2-0.8-0.5-1.1c-0.5-0.3-1-0.5-1.5-0.4
			c-0.4,0-0.8,0.1-1.2,0.2c-0.3,0.1-0.6,0.3-0.8,0.5l-0.2,1.4h-1.7v-2.1c0.5-0.5,1.1-1,1.7-1.3c0.7-0.3,1.5-0.5,2.4-0.5
			c1.1-0.1,2.2,0.2,3.1,0.8c0.8,0.6,1.2,1.5,1.1,2.4c0,0.5-0.2,1-0.5,1.4c-0.3,0.4-0.8,0.8-1.3,1c0.6,0.2,1.1,0.5,1.4,1
			c0.3,0.5,0.5,1.1,0.5,1.6c0,1-0.4,1.9-1.2,2.5c-1.9,1.2-4.2,1.2-6.1,0c-0.8-0.5-1.3-1.5-1.2-2.4l0,0h2.2c0,0.4,0.2,0.9,0.5,1.1
			c0.4,0.3,0.9,0.5,1.4,0.5c0.5,0,1.1-0.1,1.5-0.5c0.4-0.3,0.6-0.7,0.6-1.2c0-0.5-0.1-1-0.5-1.3c-0.4-0.3-0.9-0.5-1.5-0.4H616v-1.7
			H617.4z"/>
		<path d="M628.1,408.5c-0.1-0.1-0.1-0.3-0.2-0.4c0-0.1-0.1-0.3-0.1-0.5c-0.3,0.3-0.6,0.6-1,0.8c-0.4,0.2-0.9,0.3-1.3,0.3
			c-0.7,0-1.4-0.2-2-0.7c-0.5-0.5-0.8-1.1-0.7-1.8c0-0.7,0.4-1.4,1-1.8c0.8-0.5,1.8-0.7,2.8-0.6h1.2v-0.8c0-0.4-0.1-0.7-0.3-1
			c-0.3-0.2-0.6-0.4-1-0.3c-0.2,0-0.5,0-0.7,0.1c-0.2,0-0.3,0.1-0.5,0.2l-0.2,0.9h-1.7v-1.9c0.4-0.3,0.9-0.5,1.4-0.7
			c0.6-0.2,1.2-0.3,1.8-0.3c0.9,0,1.8,0.2,2.5,0.8c0.7,0.5,1,1.3,1,2.2v3.5c0,0.1,0,0.3,0,0.4c0,0.1,0,0.2,0,0.3l0.7,0.1v1.4
			L628.1,408.5z M626.1,407c0.3,0,0.6-0.1,0.9-0.2c0.3-0.1,0.5-0.3,0.7-0.6v-1.3h-1.2c-0.4,0-0.8,0.1-1.1,0.3
			c-0.2,0.2-0.4,0.5-0.4,0.8c0,0.3,0.1,0.5,0.3,0.7C625.5,406.9,625.8,407,626.1,407L626.1,407z"/>
		<path d="M645.5,401.4l-1.2,0.2v5.1h1.3l-0.2,4.3h-2.1v-2.5h-11.7v-1.4l1.2-0.2v-5.2l-1.2-0.2v-1.4h4.7v1.4l-1.2,0.2v5.1h2.3v-6.7
			h2.3v6.7h2.3v-5.1l-1.2-0.2v-1.4h4.7L645.5,401.4z"/>
		<path d="M651.4,400.1v1.4l-1.1,0.2v3.5l0,0l2.8-5.1h3.5v1.4l-1.2,0.2v5.2l1.2,0.2v1.4H652v-1.4l1.1-0.2v-3.5l0,0l-2.8,5.1h-3.5
			v-1.4l1.2-0.2v-5.2l-1.2-0.2v-1.4L651.4,400.1L651.4,400.1z"/>
		<path d="M666.5,400.1v2.9h-1.8l-0.1-1.1h-1.5v5.1l1.2,0.2v1.4h-4.7v-1.4l1.2-0.2v-5.1h-1.4l-0.1,1.1h-1.8v-2.9L666.5,400.1z"/>
		<path d="M667.6,401.4v-1.4h4.5v1.4l-1,0.2v1.8h2.8v-1.8l-1-0.2v-1.4h4.5v1.4l-1.2,0.2v5.2l1.2,0.2v1.4h-4.5v-1.4l1-0.2v-1.7h-2.8
			v1.7l1,0.2v1.4h-4.5v-1.4l1.2-0.2v-5.2L667.6,401.4z"/>
		<path d="M678.5,404.2c0-1.1,0.3-2.2,1.1-3.1c1.6-1.6,4.2-1.6,5.9,0c0.7,0.9,1.1,2,1.1,3.1v0.2c0,1.1-0.3,2.2-1.1,3.1
			c-1.6,1.6-4.2,1.6-5.9,0c-0.7-0.9-1.1-2-1.1-3.1V404.2z M680.8,404.4c0,0.6,0.1,1.3,0.4,1.9c0.3,0.5,0.8,0.7,1.3,0.7
			c0.5,0,1-0.2,1.3-0.7c0.3-0.6,0.4-1.2,0.4-1.9v-0.2c0-0.6-0.1-1.3-0.4-1.8c-0.3-0.5-0.8-0.7-1.3-0.7c-0.5,0-1,0.2-1.3,0.7
			c-0.3,0.6-0.4,1.2-0.4,1.8V404.4z"/>
		<path d="M691.5,408.7c-1.1,0-2.2-0.4-2.9-1.2c-0.7-0.8-1.1-1.9-1.1-3v-0.3c-0.1-1.1,0.3-2.2,1-3.1c1.5-1.5,3.9-1.6,5.4-0.2
			c0.7,0.8,1,1.8,1,2.8v1.3h-5l0,0c0,0.5,0.2,1,0.6,1.4c0.3,0.4,0.8,0.6,1.3,0.5c0.4,0,0.8,0,1.3-0.1c0.4-0.1,0.7-0.3,1.1-0.5
			l0.6,1.4c-0.4,0.3-0.9,0.5-1.4,0.7C692.8,408.6,692.2,408.7,691.5,408.7z M691.3,401.7c-0.4,0-0.8,0.2-1,0.5
			c-0.3,0.4-0.4,0.8-0.5,1.3l0,0h2.8v-0.2c0-0.4-0.1-0.8-0.3-1.2C692.1,401.8,691.7,401.6,691.3,401.7L691.3,401.7z"/>
		<path d="M700.1,407.1l1.2-0.2v-5.2l-1.2-0.2v-1.4h9.8v1.4l-1.2,0.2v5.2l1.2,0.2v1.4h-4.5v-1.4l1-0.2v-5.1h-2.8v5.1l1,0.2v1.4h-4.5
			L700.1,407.1z"/>
		<path d="M711,404.2c0-1.1,0.3-2.2,1.1-3.1c1.6-1.6,4.2-1.6,5.9,0c0.7,0.9,1.1,2,1.1,3.1v0.2c0,1.1-0.3,2.2-1.1,3.1
			c-1.6,1.6-4.2,1.6-5.9,0c-0.7-0.9-1.1-2-1.1-3.1V404.2z M713.3,404.4c0,0.6,0.1,1.3,0.4,1.9c0.3,0.5,0.8,0.7,1.3,0.7
			c0.5,0,1-0.2,1.3-0.7c0.3-0.6,0.4-1.2,0.4-1.9v-0.2c0-0.6-0.1-1.3-0.4-1.8c-0.3-0.5-0.8-0.7-1.3-0.7c-0.5,0-1,0.2-1.3,0.7
			c-0.3,0.6-0.4,1.2-0.4,1.8V404.4z"/>
		<path d="M720.2,401.4v-1.4h4.5v1.4l-1,0.2v1.6h0.8l1.3-1.9c0.3-0.4,0.6-0.8,1-1.1c0.4-0.3,0.8-0.4,1.3-0.4c0.2,0,0.5,0,0.7,0.1
			c0.2,0.1,0.4,0.2,0.6,0.3l-0.4,1.6l-0.3-0.1h-0.2c-0.2,0-0.4,0.1-0.5,0.2c-0.2,0.1-0.3,0.3-0.5,0.5l-1.1,1.6l2,2.9l1.2,0.2v1.4
			h-3.1l-1.8-3.2h-0.9v1.6l1,0.2v1.4h-4.5v-1.4l1.2-0.2v-5.2L720.2,401.4z"/>
		<path d="M730.2,401.4v-1.4h3.3l0.1,1c0.2-0.3,0.5-0.6,0.9-0.8c0.4-0.2,0.8-0.3,1.2-0.3c1,0,1.9,0.4,2.4,1.2c0.6,1,0.9,2.1,0.9,3.2
			v0.2c0,1.1-0.3,2.1-0.9,3c-0.6,0.8-1.5,1.2-2.4,1.1c-0.4,0-0.8-0.1-1.2-0.3c-0.3-0.2-0.6-0.4-0.9-0.7v2.5l1.1,0.2v1.4h-4.5v-1.4
			l1.1-0.2v-8.5L730.2,401.4z M736.7,404.4c0-0.7-0.1-1.3-0.4-1.9c-0.2-0.5-0.7-0.8-1.2-0.7c-0.3,0-0.6,0.1-0.9,0.2
			c-0.2,0.1-0.4,0.4-0.6,0.6v3.7c0.1,0.2,0.3,0.4,0.6,0.5c0.3,0.1,0.6,0.2,0.9,0.2c0.5,0,1-0.2,1.2-0.6c0.3-0.5,0.4-1.1,0.4-1.8
			L736.7,404.4z"/>
		<path d="M743.8,400.1v2.7h1.6c1-0.1,1.9,0.2,2.7,0.8c0.6,0.5,1,1.2,1,2c0,0.8-0.4,1.6-1,2.1c-0.8,0.6-1.7,0.9-2.7,0.8h-5.1v-1.4
			l1.2-0.2v-5.2l-1.2-0.2v-1.4L743.8,400.1L743.8,400.1z M745,400.1v1.4l-1.2,0.2v-1.6L745,400.1z M743.8,404.5v2.3h1.6
			c0.4,0,0.7-0.1,1-0.3c0.2-0.2,0.4-0.5,0.3-0.8c0-0.3-0.1-0.6-0.3-0.9c-0.3-0.2-0.7-0.4-1-0.3L743.8,404.5z M749,401.5v-1.4h3.5
			v6.9l1.1,0.2v1.4h-4.5v-1.4l1.1-0.2v-5.2L749,401.5z"/>
		<path d="M763,400.1v2.9h-1.7l-0.1-1.1h-1.5v5.1l1.2,0.2v1.4h-4.7v-1.4l1.2-0.2v-5.1h-1.4L756,403h-1.8v-2.9L763,400.1z"/>
		<path d="M768.8,400.1v1.4l-1.1,0.2v3.5l0,0l2.8-5.1h3.6v1.4l-1.2,0.2v5.2l1.2,0.2v1.4h-4.6v-1.4l1.1-0.2v-3.5l0,0l-2.8,5.1h-3.5
			v-1.4l1.2-0.2v-5.2l-1.2-0.2v-1.4L768.8,400.1L768.8,400.1z"/>
		<path d="M779.1,408.7c-1.1,0-2.2-0.4-2.9-1.2c-0.7-0.8-1.1-1.9-1.1-3v-0.3c-0.1-1.1,0.3-2.2,1-3.1c1.5-1.5,3.9-1.6,5.4-0.2
			c0.7,0.8,1,1.8,1,2.8v1.3h-5l0,0c0,0.5,0.2,1,0.6,1.4c0.3,0.4,0.8,0.6,1.3,0.5c0.4,0,0.8,0,1.3-0.1c0.4-0.1,0.7-0.3,1.1-0.5
			l0.6,1.4c-0.4,0.3-0.9,0.5-1.4,0.7C780.4,408.6,779.8,408.7,779.1,408.7z M778.9,401.7c-0.4,0-0.8,0.2-1,0.5
			c-0.3,0.4-0.4,0.8-0.5,1.3l0,0h2.8v-0.2c0-0.4-0.1-0.8-0.3-1.2C779.7,401.8,779.3,401.6,778.9,401.7L778.9,401.7z"/>
		<path d="M787.5,404.2c0-1.1,0.3-2.2,1.1-3.1c1.6-1.6,4.2-1.6,5.9,0c0.7,0.9,1.1,2,1.1,3.1v0.2c0,1.1-0.3,2.2-1.1,3.1
			c-1.6,1.6-4.2,1.6-5.9,0c-0.7-0.9-1.1-2-1.1-3.1V404.2z M789.8,404.4c0,0.6,0.1,1.3,0.4,1.9c0.3,0.5,0.8,0.7,1.3,0.7
			c0.5,0,1-0.2,1.3-0.7c0.3-0.6,0.4-1.2,0.4-1.9v-0.2c0-0.6-0.1-1.3-0.4-1.8c-0.3-0.5-0.8-0.7-1.3-0.7c-0.5,0-1,0.2-1.3,0.7
			c-0.3,0.6-0.4,1.2-0.4,1.8V404.4z"/>
		<path d="M800.9,400.5c1-0.1,2.1,0.3,2.8,1.1c0.7,0.8,1,1.8,1,2.8v0.2c0,1.1-0.3,2.1-1.1,2.9c-1.7,1.5-4.2,1.5-5.9,0
			c-0.7-0.8-1.1-1.9-1.1-3v-1.1c-0.1-1.5,0.3-3,1.1-4.3c0.7-1,1.7-1.6,2.8-1.9c0.4,0,0.8-0.2,1.1-0.3c0.2-0.1,0.4-0.4,0.4-0.7h1.8
			l0,0c0.1,0.7-0.1,1.5-0.7,2c-0.8,0.4-1.6,0.7-2.5,0.8c-0.5,0.1-1,0.3-1.4,0.7c-0.4,0.4-0.6,0.9-0.7,1.5l0,0c0.3-0.3,0.6-0.5,1-0.6
			C800,400.6,800.4,400.5,800.9,400.5z M800.7,402.3c-0.5,0-1,0.2-1.3,0.6c-0.3,0.5-0.4,1-0.4,1.6v0.1c0,0.6,0.1,1.2,0.4,1.7
			c0.6,0.7,1.6,0.9,2.3,0.3c0.1-0.1,0.2-0.2,0.3-0.3c0.3-0.5,0.4-1.1,0.4-1.7v-0.2c0-0.6-0.1-1.1-0.4-1.6
			C801.7,402.5,801.2,402.2,800.7,402.3L800.7,402.3z"/>
		<path d="M805.2,401.4v-1.4h3.3l0.1,1c0.2-0.3,0.5-0.6,0.9-0.8c0.4-0.2,0.8-0.3,1.2-0.3c1,0,1.9,0.4,2.4,1.2c0.6,1,0.9,2.1,0.9,3.2
			v0.2c0,1.1-0.3,2.1-0.9,3c-0.6,0.8-1.5,1.2-2.4,1.1c-0.4,0-0.8-0.1-1.2-0.3c-0.3-0.2-0.6-0.4-0.9-0.7v2.5l1.1,0.2v1.4h-4.5v-1.4
			l1.1-0.2v-8.5L805.2,401.4z M811.7,404.4c0-0.7-0.1-1.3-0.4-1.9c-0.2-0.5-0.7-0.8-1.2-0.7c-0.3,0-0.6,0.1-0.9,0.2
			c-0.2,0.1-0.4,0.4-0.6,0.6v3.7c0.1,0.2,0.3,0.4,0.6,0.5c0.3,0.1,0.6,0.2,0.9,0.2c0.5,0,1-0.2,1.2-0.6c0.3-0.5,0.4-1.1,0.4-1.8
			L811.7,404.4z"/>
		<path d="M820.4,408.5c-0.1-0.1-0.1-0.3-0.2-0.4c0-0.1-0.1-0.3-0.1-0.5c-0.3,0.3-0.6,0.6-1,0.8c-0.4,0.2-0.9,0.3-1.3,0.3
			c-0.7,0-1.4-0.2-2-0.7c-0.5-0.5-0.8-1.1-0.7-1.8c0-0.7,0.4-1.4,1-1.8c0.8-0.5,1.8-0.7,2.8-0.6h1.1v-0.8c0-0.4-0.1-0.7-0.3-1
			c-0.3-0.2-0.6-0.4-1-0.3c-0.2,0-0.5,0-0.7,0.1c-0.2,0-0.3,0.1-0.5,0.2l-0.2,0.9h-1.7v-1.9c0.4-0.3,0.9-0.5,1.4-0.7
			c0.6-0.2,1.2-0.3,1.8-0.3c0.9,0,1.8,0.2,2.5,0.8c0.7,0.5,1,1.3,1,2.2v3.5c0,0.1,0,0.3,0,0.4c0,0.1,0,0.2,0,0.3l0.7,0.1v1.4
			L820.4,408.5z M818.4,407c0.3,0,0.6-0.1,0.9-0.2c0.3-0.1,0.5-0.3,0.7-0.6v-1.3h-1.2c-0.4,0-0.8,0.1-1.1,0.3
			c-0.2,0.2-0.4,0.5-0.4,0.8c0,0.3,0.1,0.5,0.3,0.7C817.9,406.9,818.2,407,818.4,407L818.4,407z"/>
		<path d="M832.5,400.1v2.9h-1.8l-0.1-1.1h-1.5v5.1l1.2,0.2v1.4h-4.7v-1.4l1.2-0.2v-5.1h-1.4l-0.1,1.1h-1.8v-2.9L832.5,400.1z"/>
		<path d="M833.6,401.4v-1.4h4.5v1.4l-1,0.2v1.8h2.8v-1.8l-1-0.2v-1.4h4.5v1.4l-1.2,0.2v5.2l1.2,0.2v1.4h-4.5v-1.4l1-0.2v-1.7h-2.8
			v1.7l1,0.2v1.4h-4.5v-1.4l1.2-0.2v-5.2L833.6,401.4z"/>
		<path d="M844.5,404.2c0-1.1,0.3-2.2,1.1-3.1c1.6-1.6,4.2-1.6,5.9,0c0.7,0.9,1.1,2,1.1,3.1v0.2c0,1.1-0.3,2.2-1.1,3.1
			c-1.6,1.6-4.2,1.6-5.9,0c-0.7-0.9-1.1-2-1.1-3.1V404.2z M846.7,404.4c0,0.6,0.1,1.3,0.4,1.9c0.3,0.5,0.8,0.7,1.3,0.7
			c0.5,0,1-0.2,1.3-0.7c0.3-0.6,0.4-1.2,0.4-1.9v-0.2c0-0.6-0.1-1.3-0.4-1.8c-0.3-0.5-0.8-0.7-1.3-0.7c-0.5,0-1,0.2-1.3,0.7
			c-0.3,0.6-0.4,1.2-0.4,1.8V404.4z"/>
		<path d="M858.1,400.2v1.4l-1.1,0.2v3.5l0,0l2.8-5.1h3.5v1.4l-1.2,0.2v5.2l1.2,0.2v1.4h-4.6v-1.4l1.1-0.2v-3.5l0,0l-2.8,5.1h-3.5
			v-1.4l1.2-0.2v-5.2l-1.2-0.2v-1.4L858.1,400.2L858.1,400.2z M861.1,396.4L861.1,396.4c0.1,0.6-0.2,1.3-0.7,1.7
			c-1.2,0.8-2.8,0.8-3.9,0c-0.5-0.4-0.7-1-0.7-1.6l0,0h1.5c0,0.3,0.1,0.5,0.3,0.8c0.2,0.2,0.5,0.3,0.8,0.3c0.3,0,0.6-0.1,0.8-0.3
			c0.2-0.2,0.3-0.5,0.3-0.8L861.1,396.4z"/>
		<path d="M617.1,430.9c0.4,0,0.7-0.1,1-0.4c0.3-0.3,0.4-0.6,0.4-1h2.1l0,0c0,0.8-0.3,1.6-1,2.1c-1.6,1.3-3.9,1.1-5.4-0.3
			c-0.7-0.9-1.1-2-1-3.1v-0.2c0-1.1,0.3-2.2,1-3.1c0.8-0.8,1.9-1.3,3-1.2c0.6,0,1.2,0.1,1.8,0.3c0.5,0.2,1,0.5,1.3,0.9v2.3h-1.8
			l-0.4-1.3c-0.1-0.1-0.3-0.2-0.4-0.3c-0.2-0.1-0.4-0.1-0.6-0.1c-0.6-0.1-1.1,0.2-1.4,0.7c-0.3,0.6-0.4,1.2-0.4,1.8v0.2
			c0,0.6,0.1,1.3,0.4,1.8C616.1,430.7,616.6,431,617.1,430.9z"/>
		<path d="M630.3,424.1v2.9h-1.8l-0.1-1.1h-1.5v5.1l1.2,0.2v1.4h-4.7v-1.4l1.2-0.2v-5.1h-1.4l-0.1,1.1h-1.8v-2.9L630.3,424.1z"/>
		<path d="M631.1,428.2c0-1.1,0.3-2.2,1.1-3.1c1.6-1.6,4.2-1.6,5.9,0c0.7,0.9,1.1,2,1.1,3.1v0.2c0,1.1-0.3,2.2-1.1,3.1
			c-1.6,1.6-4.2,1.6-5.9,0c-0.7-0.9-1.1-2-1.1-3.1V428.2z M633.4,428.4c0,0.6,0.1,1.3,0.4,1.9c0.3,0.5,0.8,0.7,1.3,0.7
			c0.5,0,1-0.2,1.3-0.7c0.3-0.6,0.4-1.2,0.4-1.9v-0.2c0-0.6-0.1-1.3-0.4-1.8c-0.3-0.5-0.8-0.7-1.3-0.7c-0.5,0-1,0.2-1.3,0.7
			c-0.3,0.6-0.4,1.2-0.4,1.8V428.4z"/>
		<path d="M639.9,425.4v-1.4h3.3l0.1,1c0.2-0.3,0.5-0.6,0.9-0.8c0.4-0.2,0.8-0.3,1.2-0.3c1,0,1.9,0.4,2.4,1.2c0.6,1,0.9,2.1,0.9,3.2
			v0.2c0,1.1-0.3,2.1-0.9,3c-0.6,0.8-1.5,1.2-2.4,1.1c-0.4,0-0.8-0.1-1.2-0.3c-0.3-0.2-0.6-0.4-0.9-0.7v2.5l1.1,0.2v1.4H640v-1.4
			l1.1-0.2v-8.5L639.9,425.4z M646.4,428.4c0-0.7-0.1-1.3-0.4-1.9c-0.2-0.5-0.7-0.8-1.2-0.7c-0.3,0-0.6,0.1-0.9,0.2
			c-0.2,0.1-0.4,0.4-0.6,0.6v3.7c0.1,0.2,0.3,0.4,0.6,0.5c0.3,0.1,0.6,0.2,0.9,0.2c0.5,0,1-0.2,1.2-0.6c0.3-0.5,0.4-1.1,0.4-1.8
			L646.4,428.4z"/>
		<path d="M649.7,428.2c0-1.1,0.3-2.2,1.1-3.1c1.6-1.6,4.2-1.6,5.9,0c0.7,0.9,1.1,2,1.1,3.1v0.2c0,1.1-0.3,2.2-1.1,3.1
			c-1.6,1.6-4.2,1.6-5.9,0c-0.7-0.9-1.1-2-1.1-3.1V428.2z M652,428.4c0,0.6,0.1,1.3,0.4,1.9c0.3,0.5,0.8,0.7,1.3,0.7
			c0.5,0,1-0.2,1.3-0.7c0.3-0.6,0.4-1.2,0.4-1.9v-0.2c0-0.6-0.1-1.3-0.4-1.8c-0.3-0.5-0.8-0.7-1.3-0.7c-0.5,0-1,0.2-1.3,0.7
			c-0.3,0.6-0.4,1.2-0.4,1.8V428.4z"/>
		<path d="M658.9,425.4v-1.4h4.5v1.4l-1,0.2v1.8h2.8v-1.8l-1-0.2v-1.4h4.5v1.4l-1.2,0.2v5.2l1.2,0.2v1.4h-4.5v-1.4l1-0.2v-1.7h-2.8
			v1.7l1,0.2v1.4h-4.5v-1.4l1.2-0.2v-5.2L658.9,425.4z"/>
		<path d="M673.5,424.1v2.7h1.5c1-0.1,1.9,0.2,2.7,0.8c0.6,0.5,1,1.2,1,2c0,0.8-0.4,1.6-1,2.1c-0.8,0.6-1.7,0.9-2.7,0.8h-5v-1.4
			l1.2-0.2v-5.2l-1.2-0.2v-1.4L673.5,424.1L673.5,424.1z M674.7,424.1v1.4l-1.2,0.2v-1.6L674.7,424.1z M673.5,428.5v2.3h1.5
			c0.4,0,0.7-0.1,1-0.3c0.2-0.2,0.4-0.5,0.3-0.8c0-0.3-0.1-0.6-0.3-0.9c-0.3-0.2-0.7-0.4-1-0.3L673.5,428.5z M678.7,425.5v-1.4h3.5
			v6.9l1.1,0.2v1.4h-4.5v-1.4l1.1-0.2v-5.2L678.7,425.5z"/>
		<path d="M613.2,489.5l1.2-0.2v-8.2l-1.2-0.2v-1.4h4.7v1.4l-1.2,0.2v8h3.2v-8l-1.2-0.2v-1.4h4.7v1.4l-1.2,0.2v8h3.2v-8l-1.2-0.2
			v-1.4h4.7v1.4l-1.2,0.2v8.2l1.2,0.2v1.4h-15.7V489.5z"/>
		<path d="M638.4,483.8l-0.8,0.1l-3.1,8.2c-0.2,0.6-0.6,1.1-1,1.5c-0.5,0.4-1.2,0.7-1.8,0.6c-0.2,0-0.4,0-0.5,0l-0.6-0.1l0.3-1.7
			h0.2h0.2c0.3,0,0.6-0.1,0.9-0.3c0.2-0.2,0.4-0.4,0.5-0.7l0.3-0.6l-2.7-7l-0.8-0.1v-1.4h4.1v1.4l-1,0.2l1.2,3.4l0.1,0.6l0,0l1.3-4
			l-1-0.2v-1.4h4.1L638.4,483.8z"/>
		<path d="M645.6,488.2L645.6,488.2l2.2-5.8h4.1v1.4l-1.2,0.2v5.2l1.2,0.2v1.4h-4.3v-1.4l0.9-0.2v-3.4l0,0l-2,5h-1.5l-1.9-5l0,0v3.3
			l0.9,0.2v1.4h-4.4v-1.4l1.2-0.2V484l-1.2-0.2v-1.4h4L645.6,488.2z"/>
		<path d="M652.9,486.5c0-1.1,0.3-2.2,1.1-3.1c1.6-1.6,4.2-1.6,5.9,0c0.7,0.9,1.1,2,1.1,3.1v0.2c0,1.1-0.3,2.2-1.1,3.1
			c-1.6,1.6-4.2,1.6-5.9,0c-0.7-0.9-1.1-2-1.1-3.1V486.5z M655.2,486.7c0,0.6,0.1,1.3,0.4,1.9c0.3,0.5,0.8,0.7,1.3,0.7
			c0.5,0,1-0.2,1.3-0.7c0.3-0.6,0.4-1.2,0.4-1.9v-0.2c0-0.6-0.1-1.3-0.4-1.8c-0.3-0.5-0.8-0.7-1.3-0.7c-0.5,0-1,0.2-1.3,0.7
			c-0.3,0.6-0.4,1.2-0.4,1.8V486.7z"/>
		<path d="M662.1,489.5l1.2-0.2V484l-1.2-0.2v-1.4h9.8v1.4l-1.2,0.2v5.2l1.2,0.2v1.4h-4.5v-1.4l1-0.2v-5.1h-2.8v5.1l1,0.2v1.4h-4.5
			L662.1,489.5z"/>
		<path d="M673,486.5c0-1.1,0.3-2.2,1.1-3.1c1.6-1.6,4.2-1.6,5.9,0c0.7,0.9,1.1,2,1.1,3.1v0.2c0,1.1-0.3,2.2-1.1,3.1
			c-1.6,1.6-4.2,1.6-5.9,0c-0.7-0.9-1.1-2-1.1-3.1V486.5z M675.3,486.7c0,0.6,0.1,1.3,0.4,1.9c0.3,0.5,0.8,0.7,1.3,0.7
			c0.5,0,1-0.2,1.3-0.7c0.3-0.6,0.4-1.2,0.4-1.9v-0.2c0-0.6-0.1-1.3-0.4-1.8c-0.3-0.5-0.8-0.7-1.3-0.7c-0.5,0-1,0.2-1.3,0.7
			c-0.3,0.6-0.4,1.2-0.4,1.8V486.7z"/>
		<path d="M683.1,484l-1.2-0.2v-1.4h7.4v3h-1.4l-0.1-1.2h-2.4v5.1l1.2,0.2v1.4h-4.7v-1.4l1.2-0.2L683.1,484z"/>
		<path d="M694.8,489.5l1.2-0.2v-5.1h-2v1.8c0.1,1.3-0.2,2.5-0.8,3.7c-0.6,0.8-1.6,1.3-2.6,1.2h-0.4v-1.8h0.3c0.4,0,0.8-0.2,1-0.6
			c0.2-0.8,0.3-1.6,0.2-2.4v-2l-1.2-0.2v-1.4h9v1.4l-1.2,0.2v5.2l1.2,0.2v1.4h-4.7L694.8,489.5z"/>
		<path d="M700.5,486.5c0-1.1,0.3-2.2,1.1-3.1c1.6-1.6,4.2-1.6,5.9,0c0.7,0.9,1.1,2,1.1,3.1v0.2c0,1.1-0.3,2.2-1.1,3.1
			c-1.6,1.6-4.2,1.6-5.9,0c-0.7-0.9-1.1-2-1.1-3.1V486.5z M702.8,486.7c0,0.6,0.1,1.3,0.4,1.9c0.3,0.5,0.8,0.7,1.3,0.7
			c0.5,0,1-0.2,1.3-0.7c0.3-0.6,0.4-1.2,0.4-1.9v-0.2c0-0.6-0.1-1.3-0.4-1.8c-0.3-0.5-0.8-0.7-1.3-0.7c-0.5,0-1,0.2-1.3,0.7
			c-0.3,0.6-0.4,1.2-0.4,1.8V486.7z"/>
		<path d="M723.5,483.8l-1.2,0.2v5.1h1.3l-0.2,4.3h-2.1v-2.5h-11.7v-1.4l1.2-0.2V484l-1.2-0.2v-1.4h4.7v1.4l-1.2,0.2v5.1h2.3v-6.7
			h2.3v6.7h2.3V484l-1.2-0.2v-1.4h4.7L723.5,483.8z"/>
		<path d="M730.1,490.9c-0.1-0.1-0.1-0.3-0.2-0.4c0-0.1-0.1-0.3-0.1-0.5c-0.3,0.3-0.6,0.6-1,0.8c-0.4,0.2-0.9,0.3-1.3,0.3
			c-0.7,0-1.4-0.2-2-0.7c-0.5-0.5-0.8-1.1-0.7-1.8c0-0.7,0.4-1.4,1-1.8c0.8-0.5,1.8-0.7,2.8-0.6h1.2v-0.8c0-0.4-0.1-0.7-0.3-1
			c-0.3-0.2-0.6-0.4-1-0.3c-0.2,0-0.5,0-0.7,0.1c-0.2,0-0.3,0.1-0.5,0.2l-0.2,0.9h-1.7v-1.9c0.4-0.3,0.9-0.5,1.4-0.7
			c0.6-0.2,1.2-0.3,1.8-0.3c0.9,0,1.8,0.2,2.5,0.8c0.7,0.5,1,1.3,1,2.2v3.5c0,0.1,0,0.3,0,0.4c0,0.1,0,0.2,0,0.3l0.7,0.1v1.4
			L730.1,490.9z M728.1,489.3c0.3,0,0.6-0.1,0.9-0.2c0.3-0.1,0.5-0.3,0.7-0.6v-1.3h-1.2c-0.4,0-0.8,0.1-1.1,0.3
			c-0.2,0.2-0.4,0.5-0.4,0.8c0,0.3,0.1,0.5,0.3,0.7C727.5,489.3,727.8,489.3,728.1,489.3L728.1,489.3z"/>
		<path d="M733.7,489.5l1.1-0.2V484l-1.2-0.2v-1.4h3.5v3.3h1.2c0.1-1,0.6-1.8,1.3-2.5c0.7-0.6,1.7-1,2.7-0.9
			c1.1-0.1,2.2,0.4,2.9,1.2c0.7,0.9,1.1,2,1.1,3.1v0.2c0,1.1-0.3,2.2-1.1,3.1c-0.7,0.8-1.8,1.3-2.9,1.2c-1,0-2-0.3-2.7-1
			c-0.7-0.7-1.1-1.6-1.2-2.6H737v1.8l1.1,0.2v1.4h-4.5L733.7,489.5z M740.4,486.7c0,0.6,0.1,1.3,0.4,1.9c0.3,0.5,0.8,0.7,1.3,0.7
			c0.5,0,1-0.2,1.3-0.7c0.3-0.6,0.4-1.2,0.4-1.9v-0.2c0-0.6-0.1-1.3-0.4-1.8c-0.3-0.5-0.8-0.7-1.3-0.7c-0.5,0-1,0.2-1.3,0.7
			c-0.3,0.6-0.4,1.2-0.4,1.8V486.7z"/>
		<path d="M761.2,483.8L760,484v5.1h1.3l-0.2,4.3H759v-2.5h-11.7v-1.4l1.2-0.2V484l-1.2-0.2v-1.4h4.7v1.4l-1.2,0.2v5.1h2.3v-6.7h2.3
			v6.7h2.3V484l-1.2-0.2v-1.4h4.7L761.2,483.8z"/>
		<path d="M767.1,482.4v1.4L766,484v3.5l0,0l2.8-5.1h3.5v1.4L771,484v5.2l1.2,0.2v1.4h-4.5v-1.4l1.1-0.2v-3.5l0,0l-2.8,5.2h-3.5
			v-1.4l1.2-0.2V484l-1.2-0.2v-1.4H767.1z"/>
		<path d="M778.2,482.4v1.4l-1.1,0.2v3.5l0,0l2.8-5.1h3.5v1.4l-1.2,0.2v5.2l1.2,0.2v1.4h-4.6v-1.4l1.1-0.2v-3.5l0,0l-2.8,5.1h-3.5
			v-1.4l1.2-0.2V484l-1.2-0.2v-1.4H778.2L778.2,482.4z M781.2,478.7L781.2,478.7c0,0.6-0.2,1.2-0.7,1.6c-1.2,0.8-2.8,0.8-3.9,0
			c-0.5-0.4-0.7-1-0.7-1.6l0,0h1.5c0,0.3,0.1,0.5,0.3,0.8c0.2,0.2,0.5,0.3,0.8,0.3c0.3,0,0.6-0.1,0.8-0.3c0.2-0.2,0.3-0.5,0.3-0.8
			L781.2,478.7z"/>
		<path d="M617.1,513.3c0.4,0,0.7-0.1,1-0.4c0.3-0.3,0.4-0.6,0.4-1h2.1l0,0c0,0.8-0.3,1.6-1,2.1c-1.6,1.3-3.9,1.1-5.4-0.3
			c-0.7-0.9-1.1-2-1-3.1v-0.2c0-1.1,0.3-2.2,1-3.1c0.8-0.8,1.9-1.3,3-1.2c0.6,0,1.2,0.1,1.8,0.3c0.5,0.2,1,0.5,1.3,0.9v2.3h-1.8
			l-0.4-1.3c-0.1-0.1-0.3-0.2-0.4-0.3c-0.2-0.1-0.4-0.1-0.6-0.1c-0.6-0.1-1.1,0.2-1.4,0.7c-0.3,0.6-0.4,1.2-0.4,1.8v0.2
			c0,0.6,0.1,1.3,0.4,1.8C616.1,513,616.6,513.3,617.1,513.3z"/>
		<path d="M626.3,513.5l1.2-0.2v-5.1h-2v1.8c0.1,1.3-0.2,2.5-0.8,3.7c-0.6,0.8-1.6,1.3-2.6,1.2h-0.4v-1.8h0.3c0.4,0,0.8-0.2,1-0.6
			c0.2-0.8,0.3-1.6,0.2-2.4v-2l-1.2-0.2v-1.4h9v1.4l-1.2,0.2v5.2l1.2,0.2v1.4h-4.7L626.3,513.5z"/>
		<path d="M632,510.5c0-1.1,0.3-2.2,1.1-3.1c1.6-1.6,4.2-1.6,5.9,0c0.7,0.9,1.1,2,1.1,3.1v0.2c0,1.1-0.3,2.2-1.1,3.1
			c-1.6,1.6-4.2,1.6-5.9,0c-0.7-0.9-1.1-2-1.1-3.1V510.5z M634.3,510.7c0,0.6,0.1,1.3,0.4,1.9c0.3,0.5,0.8,0.7,1.3,0.7
			c0.5,0,1-0.2,1.3-0.7c0.3-0.6,0.4-1.2,0.4-1.9v-0.2c0-0.6-0.1-1.3-0.4-1.8c-0.3-0.5-0.8-0.7-1.3-0.7c-0.5,0-1,0.2-1.3,0.7
			c-0.3,0.6-0.4,1.2-0.4,1.8L634.3,510.7z"/>
		<path d="M645.8,506.4v1.4l-1.1,0.2v3.5l0,0l2.8-5.1h3.5v1.4l-1.2,0.2v5.2l1.2,0.2v1.4h-4.6v-1.4l1.1-0.2v-3.5l0,0l-2.8,5.1h-3.5
			v-1.4l1.2-0.2V508l-1.2-0.2v-1.4H645.8L645.8,506.4z M648.8,502.7L648.8,502.7c0,0.6-0.2,1.2-0.7,1.6c-1.2,0.8-2.8,0.8-3.9,0
			c-0.5-0.4-0.7-1-0.7-1.6l0,0h1.6c0,0.3,0.1,0.5,0.3,0.8c0.2,0.2,0.5,0.3,0.8,0.3c0.3,0,0.6-0.1,0.8-0.3c0.2-0.2,0.3-0.5,0.3-0.8
			L648.8,502.7z"/>
		<path d="M652.3,510.2c-0.1-1.8,0.4-3.6,1.2-5.2c0.6-1.2,1.5-2.2,2.7-2.8l0,0l0.4,1.1c-0.8,0.7-1.4,1.5-1.7,2.5
			c-0.5,1.4-0.7,2.9-0.7,4.3v0.2c0,1.5,0.2,3,0.7,4.3c0.3,1,0.9,1.8,1.7,2.5l-0.4,1.1l0,0c-1.2-0.6-2.1-1.6-2.7-2.8
			c-0.8-1.6-1.2-3.4-1.2-5.2V510.2z"/>
		<path d="M661.3,510.5c0-1.1,0.3-2.2,1.1-3.1c1.6-1.6,4.2-1.6,5.9,0c0.7,0.9,1.1,2,1.1,3.1v0.2c0,1.1-0.3,2.2-1.1,3.1
			c-1.6,1.6-4.2,1.6-5.9,0c-0.7-0.9-1.1-2-1.1-3.1V510.5z M663.6,510.7c0,0.6,0.1,1.3,0.4,1.9c0.3,0.5,0.8,0.7,1.3,0.7
			c0.5,0,1-0.2,1.3-0.7c0.3-0.6,0.4-1.2,0.4-1.9v-0.2c0-0.6-0.1-1.3-0.4-1.8c-0.3-0.5-0.8-0.7-1.3-0.7c-0.5,0-1,0.2-1.3,0.7
			c-0.3,0.6-0.4,1.2-0.4,1.8V510.7z"/>
		<path d="M678.8,506.4v6.7h1.2l-0.2,4.3h-2.1v-2.5h-7.6v-1.4l1.2-0.2V508l-1.2-0.2v-1.4h4.5v1.4l-1,0.2v5.1h2.8V508l-1-0.2v-1.4
			H678.8L678.8,506.4z M680,506.4v1.4l-1.2,0.2v-1.6H680z"/>
		<path d="M685.9,506.4v1.4l-1.1,0.2v3.5l0,0l2.8-5.1h3.5v1.4l-1.2,0.2v5.2l1.2,0.2v1.4h-4.5v-1.4l1.1-0.2v-3.5l0,0l-2.8,5.1h-3.5
			v-1.4l1.2-0.2V508l-1.2-0.2v-1.4H685.9L685.9,506.4z"/>
		<path d="M696.8,513.5l1.1-0.2v-1.4h-1.4l-1.7,3h-2.5v-1.4l1-0.2l1-1.8c-0.5-0.2-0.9-0.5-1.2-1c-0.3-0.4-0.4-0.9-0.4-1.4
			c0-0.8,0.4-1.5,1-2c0.8-0.6,1.7-0.8,2.6-0.8h4.9v1.4l-1.2,0.2v5.2l1.2,0.2v1.4h-4.6L696.8,513.5z M695.1,509.3
			c0,0.3,0.1,0.6,0.3,0.8c0.3,0.2,0.6,0.4,1,0.3h1.5v-2.2h-1.5c-0.4,0-0.7,0.1-1,0.3C695.3,508.7,695.1,509,695.1,509.3z"/>
		<path d="M706.9,510.4c0,1.8-0.4,3.6-1.2,5.2c-0.6,1.2-1.5,2.2-2.8,2.8l0,0l-0.4-1.1c0.8-0.7,1.4-1.5,1.7-2.5
			c0.5-1.4,0.7-2.9,0.7-4.4v-0.2c0-1.5-0.2-3-0.7-4.4c-0.3-1-0.9-1.8-1.7-2.5l0.4-1.1l0,0c1.2,0.6,2.2,1.6,2.8,2.8
			c0.9,1.6,1.3,3.4,1.2,5.2V510.4z"/>
	</g>
</g>
</svg>
